<svg xmlns="http://www.w3.org/2000/svg" version="1.1" width="753px" height="772px" style="shape-rendering:geometricPrecision; text-rendering:geometricPrecision; image-rendering:optimizeQuality; fill-rule:evenodd; clip-rule:evenodd" xmlns:xlink="http://www.w3.org/1999/xlink" transform="rotate(0) scale(1, 1)">
<g><path style="opacity:1" fill="#000000" d="M -0.5,-0.5 C 250.5,-0.5 501.5,-0.5 752.5,-0.5C 752.5,256.833 752.5,514.167 752.5,771.5C 501.5,771.5 250.5,771.5 -0.5,771.5C -0.5,514.167 -0.5,256.833 -0.5,-0.5 Z"/></g>
<g><path style="opacity:1" fill="#ffffff" d="M 117.5,358.5 C 117.556,353.269 116.889,348.269 115.5,343.5C 114.871,336.67 114.204,329.837 113.5,323C 115.413,304.469 117.579,285.969 120,267.5C 122.394,256.653 125.394,245.986 129,235.5C 135.224,222.303 141.724,209.303 148.5,196.5C 149.397,197.598 150.23,197.598 151,196.5C 160.916,179.578 172.749,164.078 186.5,150C 185.906,149.536 185.239,149.369 184.5,149.5C 223.274,109.775 270.274,85.275 325.5,76C 427.29,66.4502 507.79,102.95 567,185.5C 617.281,266.123 621.614,349.123 580,434.5C 534.673,514.791 465.84,559.958 373.5,570C 371.667,570.5 370.5,571.667 370,573.5C 369.633,599.505 369.967,625.505 371,651.5C 371.094,657.278 371.761,662.944 373,668.5C 403.117,669.819 433.284,671.319 463.5,673C 469.168,674.421 470.834,677.754 468.5,683C 463.322,684.798 457.989,685.798 452.5,686C 441.189,687.014 429.855,687.68 418.5,688C 378.167,688.667 337.833,688.667 297.5,688C 285.159,687.078 272.826,686.078 260.5,685C 254.025,683.245 253.025,679.911 257.5,675C 260.717,673.363 264.05,672.03 267.5,671C 296.072,670.829 324.572,670.329 353,669.5C 354.652,637.252 354.985,604.919 354,572.5C 352.2,570.683 350.034,569.516 347.5,569C 256.494,559.609 188.327,515.442 143,436.5C 137.446,426.261 132.779,415.594 129,404.5C 125.849,394.231 122.849,383.897 120,373.5C 119.268,368.339 118.434,363.339 117.5,358.5 Z"/></g>
<g><path style="opacity:1" fill="#000000" d="M 336.5,92.5 C 432.291,86.869 506.124,124.202 558,204.5C 584.822,250.651 594.488,300.318 587,353.5C 571.279,443.21 521.113,504.71 436.5,538C 415.199,545.528 393.199,549.028 370.5,548.5C 368.51,480.185 368.01,411.851 369,343.5C 371.876,338.766 375.376,338.266 379.5,342C 387.573,348.398 393.74,356.231 398,365.5C 402.167,370.333 406.333,375.167 410.5,380C 416.919,382.116 420.252,379.616 420.5,372.5C 417.597,355.765 408.93,342.932 394.5,334C 389.341,331.588 384.341,328.921 379.5,326C 378.11,323.006 379.11,321.006 382.5,320C 391.452,317.509 400.118,318.176 408.5,322C 424.697,334.19 439.697,347.857 453.5,363C 455.591,364.675 457.758,365.175 460,364.5C 460.653,353.103 457.986,342.437 452,332.5C 435.761,313.187 414.928,303.687 389.5,304C 388.549,303.282 388.383,302.449 389,301.5C 404.607,290.838 421.94,285.838 441,286.5C 477.472,288.07 507.472,302.737 531,330.5C 537.624,340.248 544.124,350.081 550.5,360C 551.449,360.617 552.282,360.451 553,359.5C 554.361,337.711 547.861,318.545 533.5,302C 500.426,273.31 462.426,264.31 419.5,275C 404.893,280.631 391.559,288.298 379.5,298C 373.931,300.434 372.097,298.601 374,292.5C 385.24,270.591 399.573,250.925 417,233.5C 423.94,224.13 421.44,220.63 409.5,223C 398.228,227.233 388.728,234.066 381,243.5C 375.219,252.727 370.219,262.394 366,272.5C 364.611,274.227 362.944,275.561 361,276.5C 356.092,268.357 351.426,260.023 347,251.5C 338.235,236.718 325.569,227.384 309,223.5C 307.236,223.544 305.569,223.878 304,224.5C 303.448,227.419 304.115,230.086 306,232.5C 318.148,246.802 329.814,261.469 341,276.5C 345.845,283.517 349.012,291.184 350.5,299.5C 348.011,299.702 345.677,299.202 343.5,298C 328.823,285.649 312.156,277.315 293.5,273C 259.229,267.082 228.229,274.082 200.5,294C 180.085,310.664 169.751,332.164 169.5,358.5C 172.325,358.919 174.491,357.919 176,355.5C 193.32,320.86 220.82,298.693 258.5,289C 272.125,287.449 285.792,287.116 299.5,288C 311.193,290.009 322.193,294.009 332.5,300C 334.957,301.512 334.957,302.846 332.5,304C 298.748,304.607 275.582,320.441 263,351.5C 262.501,355.821 262.334,360.154 262.5,364.5C 266.882,363.141 270.882,360.974 274.5,358C 283.47,350.031 292.137,341.697 300.5,333C 306.379,327.455 313.045,323.122 320.5,320C 327.509,318.054 334.509,318.054 341.5,320C 345.795,321.845 346.462,324.512 343.5,328C 326.818,333.671 313.985,344.171 305,359.5C 303.136,366.549 303.136,373.549 305,380.5C 306.737,382.625 308.904,383.458 311.5,383C 315.036,379.799 318.203,376.299 321,372.5C 326.914,361.177 334.414,351.01 343.5,342C 347.192,339.841 350.692,340.007 354,342.5C 354.823,412.195 354.657,481.862 353.5,551.5C 258.725,542.863 190.558,495.863 149,410.5C 115.659,320.535 129.992,239.202 192,166.5C 231.537,124.982 279.703,100.315 336.5,92.5 Z"/></g>
<g><path style="opacity:1" fill="#000000" d="M 184.5,149.5 C 185.239,149.369 185.906,149.536 186.5,150C 172.749,164.078 160.916,179.578 151,196.5C 150.23,197.598 149.397,197.598 148.5,196.5C 158.33,179.174 170.33,163.507 184.5,149.5 Z"/></g>
<g><path style="opacity:1" fill="#000000" d="M 115.5,343.5 C 116.889,348.269 117.556,353.269 117.5,358.5C 116.111,353.731 115.444,348.731 115.5,343.5 Z"/></g>
</svg>