<?xml version="1.0" standalone="no"?>
<!DOCTYPE svg PUBLIC "-//W3C//DTD SVG 20010904//EN"
 "http://www.w3.org/TR/2001/REC-SVG-20010904/DTD/svg10.dtd">
<svg version="1.0" xmlns="http://www.w3.org/2000/svg"
 width="500.000000pt" height="500.000000pt" viewBox="0 0 500.000000 500.000000"
 preserveAspectRatio="xMidYMid meet">

<g transform="translate(0.000000,500.000000) scale(0.100000,-0.100000)"
fill="#000000" stroke="none">
<path d="M2290 4460 c-145 -12 -351 -62 -465 -115 -16 -8 -52 -24 -80 -36
-332 -150 -634 -453 -789 -794 -20 -44 -43 -92 -51 -107 -8 -14 -15 -37 -15
-50 0 -13 -6 -32 -14 -43 -7 -11 -17 -42 -21 -70 -4 -27 -12 -59 -18 -70 -6
-11 -14 -60 -18 -110 -4 -49 -13 -130 -20 -178 -11 -76 -11 -103 4 -200 9 -62
19 -136 21 -166 3 -29 10 -58 15 -65 5 -6 12 -33 16 -61 4 -27 14 -59 21 -70
8 -11 14 -31 14 -45 0 -14 6 -34 14 -45 7 -11 17 -34 20 -52 4 -17 14 -37 22
-44 8 -6 14 -19 15 -28 0 -15 19 -50 83 -157 27 -45 54 -84 119 -169 78 -103
266 -272 401 -360 67 -43 243 -135 260 -135 6 0 22 -6 36 -13 29 -15 135 -48
230 -71 58 -15 127 -26 255 -43 22 -3 43 -11 47 -17 4 -6 8 -153 8 -327 0
-280 -2 -318 -16 -323 -9 -3 -142 -6 -297 -6 -248 0 -286 -2 -317 -18 -37 -18
-50 -51 -28 -69 30 -24 221 -33 703 -33 472 0 665 8 707 31 26 14 22 46 -9 66
-24 16 -62 19 -320 23 -175 3 -296 9 -302 15 -11 11 -27 589 -18 627 6 23 14
26 124 42 322 47 551 141 808 332 212 157 420 425 522 672 7 17 20 47 28 65 8
17 17 46 21 62 4 17 10 35 14 40 5 6 11 28 15 50 4 22 13 60 20 85 8 25 20
109 29 186 14 138 10 240 -18 429 -13 82 -58 243 -82 287 -8 14 -14 31 -14 38
0 14 -96 208 -113 230 -7 8 -18 26 -25 40 -38 79 -205 274 -325 377 -159 138
-328 236 -530 308 -92 33 -269 68 -427 85 -95 10 -136 10 -260 0z m432 -144
c21 -9 50 -16 64 -16 31 0 145 -34 186 -56 14 -8 35 -14 46 -14 11 0 25 -7 32
-15 7 -8 20 -15 29 -16 9 0 39 -14 66 -30 28 -16 57 -32 65 -36 33 -16 175
-117 219 -156 141 -127 257 -269 340 -415 22 -41 41 -75 41 -77 0 -1 12 -29
27 -61 36 -82 73 -185 73 -209 0 -11 8 -40 17 -65 20 -57 31 -468 14 -575 -59
-387 -265 -736 -561 -956 -106 -78 -155 -111 -234 -153 -83 -45 -254 -116
-279 -116 -10 0 -30 -6 -45 -14 -32 -16 -303 -39 -315 -27 -4 4 -11 307 -14
672 -5 506 -3 670 6 687 21 39 54 28 115 -40 31 -34 56 -67 56 -73 0 -7 9 -23
20 -36 101 -121 104 -123 135 -89 20 22 17 56 -11 135 -24 66 -110 152 -192
191 -34 16 -62 34 -62 41 0 21 37 33 103 33 57 0 70 -4 123 -39 32 -21 109
-91 171 -155 130 -135 153 -145 153 -67 0 28 -4 52 -9 55 -5 4 -12 24 -16 47
-5 31 -21 55 -73 109 -37 38 -78 74 -92 80 -14 5 -32 14 -40 19 -30 20 -155
51 -200 51 -60 0 -66 8 -27 34 95 63 247 91 414 75 83 -7 104 -13 218 -63 146
-64 279 -186 358 -328 65 -118 87 -125 87 -30 0 100 -62 245 -138 325 -57 60
-210 157 -248 157 -9 0 -28 6 -42 14 -95 51 -383 52 -497 1 -84 -37 -126 -60
-189 -106 -79 -59 -100 -59 -84 -2 17 61 154 256 258 366 75 80 73 108 -8 99
-31 -3 -65 -17 -100 -39 -89 -59 -146 -136 -192 -260 -13 -35 -45 -69 -53 -56
-3 4 -28 53 -57 108 -38 74 -67 115 -112 158 -33 31 -68 57 -77 57 -9 0 -27 7
-39 16 -13 9 -37 14 -60 12 -32 -3 -37 -6 -34 -26 2 -12 15 -35 29 -50 41 -43
182 -221 211 -266 38 -59 71 -128 72 -148 0 -30 -27 -20 -101 37 -39 30 -77
55 -84 55 -7 0 -18 7 -25 15 -7 8 -22 15 -33 15 -11 0 -28 6 -36 13 -24 20
-155 41 -246 41 -92 0 -208 -19 -247 -40 -14 -8 -37 -14 -51 -14 -13 0 -30 -7
-37 -15 -7 -8 -17 -15 -23 -15 -13 0 -75 -40 -135 -88 -51 -41 -110 -118 -141
-187 -12 -27 -26 -57 -31 -66 -15 -29 -24 -156 -11 -164 17 -10 44 18 75 76
29 56 100 151 143 190 74 67 196 139 301 178 119 43 344 46 439 5 97 -41 143
-66 138 -75 -4 -5 -27 -9 -52 -9 -44 0 -160 -31 -193 -51 -8 -5 -26 -14 -39
-19 -47 -21 -155 -143 -178 -203 -24 -60 -30 -122 -13 -132 14 -9 112 70 210
170 105 107 156 135 243 135 68 0 104 -16 94 -42 -3 -9 -18 -19 -33 -22 -15
-4 -39 -16 -52 -27 -14 -10 -30 -19 -36 -19 -17 0 -101 -83 -132 -129 -35 -54
-41 -154 -10 -177 11 -8 24 -14 29 -14 18 0 73 67 116 141 57 96 107 149 142
149 19 0 28 -6 33 -22 3 -13 6 -327 6 -699 0 -533 -3 -678 -12 -682 -7 -2 -38
0 -68 5 -30 5 -93 14 -140 21 -47 7 -90 16 -97 20 -6 4 -31 11 -55 16 -41 9
-111 32 -153 50 -154 68 -233 114 -357 209 -161 122 -308 290 -405 462 -55 96
-83 153 -83 164 0 6 -7 24 -15 40 -9 16 -20 46 -24 65 -5 20 -14 50 -19 66
-36 109 -45 177 -49 370 -3 115 0 223 6 255 23 121 38 186 49 207 7 12 12 30
12 41 0 38 120 291 179 377 167 244 381 428 631 543 102 46 167 72 183 72 8 0
28 7 43 15 16 8 43 15 61 15 17 0 44 5 60 11 50 21 154 28 348 24 143 -3 199
-8 227 -19z"/>
</g>
</svg>
